<svg width="50" height="50" viewBox="0 0 50 50" fill="none" xmlns="http://www.w3.org/2000/svg">
<path d="M42 20.8087C42 30.093 25.5 46 25.5 46C25.5 46 9 30.093 9 20.8087C9 11.5244 16.3862 4 25.5 4C34.6138 4 42 11.5244 42 20.8087Z" fill="#ff6b81"/>
<path d="M41.5 20.8087C41.5 23.0006 40.5192 25.6444 38.9843 28.4197C37.4566 31.1819 35.4133 34.0159 33.3601 36.5729C31.3085 39.1281 29.2555 41.3962 27.7148 43.026C26.9447 43.8406 26.3032 44.4951 25.8547 44.9456C25.7179 45.0829 25.599 45.2013 25.5 45.2995C25.401 45.2013 25.2821 45.0829 25.1453 44.9456C24.6968 44.4951 24.0553 43.8406 23.2852 43.026C21.7445 41.3962 19.6915 39.1281 17.6399 36.5729C15.5867 34.0159 13.5434 31.1819 12.0157 28.4197C10.4808 25.6444 9.5 23.0006 9.5 20.8087C9.5 11.7917 16.671 4.5 25.5 4.5C34.329 4.5 41.5 11.7917 41.5 20.8087Z" stroke="#ff6b81"/>
<path fill-rule="evenodd" clip-rule="evenodd" d="M25.8821 12.1289L33.7452 18.0735L33.7521 18.0804C33.9105 18.1972 34 18.3828 34 18.5821V26.939C34 27.2895 33.7177 27.5712 33.3665 27.5712H27.9202C27.5691 27.5712 27.2868 27.2895 27.2868 26.939V23.7708C27.2868 22.8567 26.4881 22.1145 25.5034 22.1145C24.5188 22.1145 23.7201 22.8567 23.7201 23.7708V26.939C23.7201 27.2895 23.4378 27.5712 23.0867 27.5712H17.6335C17.2823 27.5712 17 27.2895 17 26.939V18.5752C17 18.3828 17.0895 18.1904 17.2479 18.0735L25.1179 12.1289C25.3451 11.957 25.6549 11.957 25.8821 12.1289ZM28.5537 26.3204H32.74L32.7331 26.3136V18.8913L25.4966 13.4209L18.2669 18.8913V26.3204H22.4532V23.7845C22.4532 22.1764 23.8234 20.8706 25.5034 20.8706C27.1835 20.8706 28.5537 22.1764 28.5537 23.7845V26.3204ZM25.5035 20.2934C24.1058 20.2934 22.9697 19.1595 22.9697 17.7644C22.9697 16.3761 24.1127 15.2422 25.5035 15.2422C26.8944 15.2422 28.0305 16.3693 28.0305 17.7644C28.0305 19.1595 26.9013 20.2934 25.5035 20.2934ZM25.4967 19.0289C26.199 19.0289 26.7636 18.4585 26.7636 17.7644C26.7636 17.0634 26.199 16.4998 25.4967 16.4998C24.7944 16.4998 24.2298 17.0703 24.2298 17.7644C24.2298 18.4585 24.7944 19.0289 25.4967 19.0289Z" fill="#F9F9F9"/>
</svg>
